<svg width="180" height="180" viewBox="0 0 180 180" fill="none" xmlns="http://www.w3.org/2000/svg">
<path fill-rule="evenodd" clip-rule="evenodd" d="M71.569 1.11844C36.6019 9.17452 11.2137 33.5131 1.79865 68.0055C0.367265 73.2476 0 77.765 0 90.1221C0 107.261 0.984075 112.594 6.62955 126.059C15.2028 146.506 33.5141 164.806 53.9734 173.374C67.4462 179.017 72.7828 180 89.9321 180C102.297 180 106.817 179.633 112.062 178.202C145.096 169.196 169.053 145.253 178.066 112.239C180.645 102.792 180.645 77.4526 178.066 68.0055C173.537 51.4134 165.699 37.7463 154.019 26.0734C142.658 14.7187 130.208 7.43437 113.482 2.35509C105.413 -0.0956174 80.0819 -0.842874 71.569 1.11844ZM81.7591 6.50265C71.4824 7.39013 63.8829 9.52367 53.6767 14.3884C26.6905 27.2517 8.8529 52.73 6.27735 82.0933C3.12267 118.051 21.4942 150.515 53.6767 165.856C68.0508 172.707 81.7723 175.146 97.9657 173.726C108.586 172.796 115.916 170.752 126.187 165.856C158.37 150.515 176.742 118.051 173.587 82.0933C171.123 54.0109 154.686 29.4135 129.318 15.8462C114.72 8.03951 99.2285 4.9959 81.7591 6.50265ZM87.6786 35.1431C86.5665 38.0399 87.0872 44.7012 88.5195 45.8889C90.8145 47.7929 92.7572 45.4024 92.7572 40.6741C92.7572 35.4791 92.0227 33.6543 89.9321 33.6543C89.0073 33.6543 87.9931 34.3243 87.6786 35.1431ZM52.8923 48.3989C51.4478 49.8417 52.4855 52.3112 55.9641 55.7059C58.3316 58.0164 60.198 59.1128 61.1435 58.7495C63.6154 57.8018 62.8131 54.9266 59.0519 51.2562C55.53 47.8192 54.1241 47.167 52.8923 48.3989ZM120.755 51.3127C117.026 55.129 116.29 57.8178 118.721 58.7495C120.785 59.5419 127.758 52.6265 127.4 50.1429C126.956 47.0569 124.489 47.4908 120.755 51.3127ZM82.3985 50.9155C71.5304 53.3982 63.1841 59.7471 57.8419 69.5932C54.754 75.2851 54.6184 75.9496 54.6184 85.4164C54.6184 94.3186 54.8868 95.8799 57.3305 101.165C60.2394 107.46 66.1401 113.711 72.7678 117.516L76.6862 119.768L76.9527 129.65C77.2013 138.869 77.3614 139.594 79.338 140.46C80.7995 141.101 81.4568 142.196 81.4568 143.99V146.59H89.9321H98.4074V143.99C98.4074 142.196 99.0647 141.101 100.526 140.46C102.504 139.594 102.663 138.871 102.911 129.617L103.175 119.701L108.191 116.703C114.564 112.894 119.607 107.317 122.764 100.587C124.931 95.9693 125.244 94.104 125.233 85.887C125.222 77.7509 124.891 75.7689 122.784 71.2562C115.542 55.7473 98.6004 47.2141 82.3985 50.9155ZM80.404 56.5435C72.1095 59.6417 64.8886 66.2701 61.3798 74.008C58.6225 80.0859 58.6781 91.6279 61.4928 97.8949C64.2341 103.997 70.9654 110.944 76.7709 113.661C80.4953 115.405 81.6988 116.506 82.1066 118.546C82.6292 121.158 82.6933 121.179 89.9321 121.179C97.1502 121.179 97.2359 121.151 97.751 118.576C98.138 116.641 99.3801 115.436 102.594 113.875C108.872 110.827 114.945 104.807 117.877 98.7268C123.022 88.0525 120.738 74.4325 112.22 65.0108C106.652 58.8511 100.198 55.9327 91.3559 55.576C86.6013 55.384 82.5511 55.7416 80.404 56.5435ZM81.3363 61.8571C77.609 62.9836 72.2188 66.927 69.6517 70.4044C64.5176 77.3594 62.8018 87.7692 66.7889 87.7692C68.2052 87.7692 68.8437 86.6935 69.7101 82.8509C71.3185 75.7105 74.7887 71.0341 80.6366 68.1213C83.3628 66.7632 86.7294 65.6527 88.1184 65.6527C90.8644 65.6527 93.2855 63.5031 92.3117 61.9296C91.6121 60.7983 84.9825 60.755 81.3363 61.8571ZM37.5304 84.9637C36.5652 87.4775 38.5079 88.3574 44.3577 88.0553C49.1867 87.8069 49.91 87.5236 49.91 85.887C49.91 84.2353 49.1886 83.9708 44.0121 83.7243C39.2782 83.4993 37.9994 83.744 37.5304 84.9637ZM129.817 84.9637C128.851 87.4775 130.794 88.3574 136.644 88.0553C141.473 87.8069 142.196 87.5236 142.196 85.887C142.196 84.2353 141.475 83.9708 136.298 83.7243C131.565 83.4993 130.286 83.744 129.817 84.9637ZM55.7777 116.251C52.0486 120.067 51.3131 122.756 53.7436 123.687C55.8078 124.48 62.7811 117.564 62.4232 115.081C61.9787 111.995 59.5115 112.429 55.7777 116.251ZM118.418 113.332C116.247 114.208 117.212 117.005 120.941 120.644C124.807 124.416 127.6 124.698 127.6 121.319C127.6 119.904 120.825 112.465 119.828 112.784C119.7 112.824 119.066 113.072 118.418 113.332ZM82.3985 130.951C82.3985 135.227 82.6923 136.094 84.2819 136.51C85.5541 136.843 86.1653 137.794 86.1653 139.443C86.1653 141.664 86.5053 141.884 89.9321 141.884C93.3589 141.884 93.6989 141.664 93.6989 139.443C93.6989 137.794 94.31 136.843 95.5823 136.51C97.1719 136.094 97.4657 135.227 97.4657 130.951V125.885H89.9321H82.3985V130.951Z" fill="black"/>
</svg>
