<svg width="180" height="180" viewBox="0 0 180 180" fill="none" xmlns="http://www.w3.org/2000/svg">
<path fill-rule="evenodd" clip-rule="evenodd" d="M75.5558 0.590423C40.3268 6.98444 13.2506 31.1835 2.70047 65.7054C0.268939 73.6604 0 76.0875 0 90.1287C0 104.17 0.268939 106.597 2.70047 114.552C12.2292 145.731 34.3185 167.788 65.5416 177.303C73.5081 179.731 75.9386 180 90 180C104.061 180 106.492 179.731 114.458 177.303C145.682 167.788 167.771 145.731 177.3 114.552C179.731 106.597 180 104.17 180 90.1287C180 76.0875 179.731 73.6604 177.3 65.7054C167.76 34.4907 145.345 12.1403 114.458 3.04463C107.564 1.01387 102.836 0.359085 93.0218 0.0724252C86.0968 -0.128739 78.2372 0.103605 75.5558 0.590423ZM74.6231 7.23288C57.5893 10.3077 43.3939 17.8705 30.5161 30.7299C17.3521 43.874 10.0273 57.8006 6.92091 75.5926C4.98898 86.6506 4.98898 93.6069 6.92091 104.665C10.0273 122.457 17.3521 136.384 30.5161 149.528C43.679 162.673 57.6255 169.987 75.443 173.089C86.5169 175.018 93.4831 175.018 104.557 173.089C122.374 169.987 136.321 162.673 149.484 149.528C162.648 136.384 169.973 122.457 173.079 104.665C175.011 93.6069 175.011 86.6506 173.079 75.5926C171.171 64.6674 166.857 53.379 161.335 44.8667C155.902 36.4912 143.714 24.3208 135.327 18.8954C118.189 7.81022 95.5319 3.45802 74.6231 7.23288ZM78.5242 37.4055C78.1878 38.2806 77.9128 40.3425 77.9128 41.9881C77.9128 44.6304 77.2954 45.253 72.6358 47.3059L67.3587 49.6313L64.2312 47.2495C62.5108 45.9389 60.4539 44.8667 59.6602 44.8667C57.7484 44.8667 44.6671 58.0782 44.6953 59.9792C44.7074 60.7949 45.6038 62.5944 46.6877 63.9774C49.1444 67.1125 49.1474 68.4321 46.7149 73.7841C45.2533 76.9997 44.1977 78.0619 42.4562 78.073C41.183 78.08 39.1211 78.3596 37.8741 78.6925C35.7014 79.2739 35.6078 79.7487 35.6078 90.1287C35.6078 100.509 35.7014 100.984 37.8741 101.565C39.1211 101.898 41.183 102.177 42.4562 102.185C44.1977 102.196 45.2533 103.258 46.7149 106.473C49.1474 111.825 49.1444 113.145 46.6877 116.28C45.6038 117.663 44.7074 119.486 44.6953 120.331C44.6681 122.227 57.7938 135.391 59.7126 135.391C60.4771 135.391 62.5108 134.319 64.2312 133.008L67.3587 130.626L72.6358 132.952C77.2954 135.005 77.9128 135.627 77.9128 138.269C77.9128 144.32 78.1536 144.443 90 144.443C101.846 144.443 102.087 144.32 102.087 138.269C102.087 135.627 102.705 135.005 107.364 132.952L112.641 130.626L115.769 133.008C117.489 134.319 119.546 135.391 120.34 135.391C122.252 135.391 135.333 122.179 135.305 120.278C135.293 119.463 134.396 117.663 133.312 116.28C130.856 113.145 130.853 111.825 133.285 106.473C134.85 103.029 135.74 102.199 137.862 102.199C143.764 102.199 144.392 101.037 144.392 90.1287C144.392 79.2176 143.765 78.0589 137.854 78.0589C135.639 78.0589 134.833 77.2079 132.855 72.7783L130.498 67.4977L132.912 64.2962C134.24 62.535 135.327 60.4862 135.327 59.7428C135.327 57.9656 122.084 44.8667 120.287 44.8667C119.523 44.8667 117.489 45.9389 115.769 47.2495L112.641 49.6313L107.364 47.3059C103.209 45.4753 102.084 44.4875 102.073 42.661C102.034 35.925 101.838 35.8143 89.9899 35.8143C81.0212 35.8143 79.0299 36.0909 78.5242 37.4055ZM82.653 40.4683C82.2622 40.8585 81.9348 42.3482 81.9268 43.7774C81.9036 47.6639 80.9084 48.6325 74.1024 51.3945C66.5408 54.4623 66.4824 54.4643 62.7344 51.6973L59.7237 49.4744L54.5745 54.6172L49.4244 59.7599L51.7109 63.4533L53.9974 67.1467L51.2596 74.115C48.5028 81.1317 48.2117 81.3932 42.155 82.3085C40.3469 82.5811 40.1405 83.3847 40.1405 90.1287C40.1405 96.8728 40.3469 97.6764 42.155 97.949C48.124 98.8512 48.4796 99.159 51.1096 105.721C54.2905 113.655 54.2885 113.607 51.5134 117.355L49.2874 120.362L54.4375 125.504L59.5877 130.646L63.2864 128.363L66.985 126.08L73.9634 128.814C80.99 131.567 81.2519 131.857 82.1685 137.905C82.4415 139.711 83.2463 139.917 90 139.917C96.7537 139.917 97.5585 139.711 97.8315 137.905C98.735 131.945 99.0432 131.59 105.615 128.964C113.56 125.787 113.512 125.789 117.266 128.56L120.276 130.783L125.494 125.572L130.713 120.362L128.487 117.355C125.712 113.607 125.709 113.655 128.89 105.721C131.52 99.159 131.876 98.8512 137.845 97.949C139.653 97.6764 139.86 96.8728 139.86 90.1287C139.86 83.3847 139.653 82.5811 137.845 82.3085C131.876 81.4063 131.52 81.0985 128.89 74.5365C125.709 66.6026 125.712 66.6508 128.487 62.9021L130.713 59.8957L125.562 54.754L120.412 49.6112L116.714 51.8944L113.015 54.1776L106.037 51.4438C99.011 48.6909 98.741 48.3921 97.8345 42.3522C97.5706 40.593 96.6439 40.3043 90.4492 40.0488C86.5532 39.8889 83.0448 40.078 82.653 40.4683ZM77.8323 58.2361C63.9985 64.0448 56.99 73.6695 56.0744 88.1171C55.5526 96.3618 57.9307 105.657 61.0674 107.633C63.9955 109.477 64.2161 107.341 61.842 100.112C56.7956 84.7406 62.8663 70.2859 77.4394 62.9746C84.5406 59.4109 95.4835 59.4069 102.468 62.9655C108.878 66.2304 114.07 71.3872 117.193 77.5902C119.208 81.5893 119.709 84.0878 119.709 90.1287C119.709 96.1687 119.208 98.6692 117.193 102.671C109.908 117.15 95.3184 123.261 80.0029 118.247C76.0967 116.967 72.6126 116.209 72.2601 116.56C69.4971 119.319 80.7221 124.327 89.6686 124.327C119.046 124.327 134.577 91.3508 116.159 68.0831C107.693 57.3882 90.421 52.9505 77.8323 58.2361ZM93.6745 66.678C92.2291 68.1213 93.1678 70.0103 95.6376 70.6299C97.077 70.9899 100.254 72.8095 102.698 74.6723C107.453 78.2962 108.632 78.6845 109.692 76.9716C110.486 75.6892 105.691 70.3834 102.087 68.5549C98.6685 66.8198 94.4702 65.8834 93.6745 66.678ZM74.1356 67.6084C72.2873 68.4301 72.5985 70.4549 74.891 72.5268C75.999 73.5276 76.9056 74.9559 76.9056 75.7002C76.9056 77.6988 74.4589 77.3427 72.3729 75.0414C69.9081 72.3217 68.0094 72.5108 67.2449 75.5514C66.288 79.3574 67.5995 84.5243 70.1217 86.8829C72.8342 89.4206 77.6932 91.389 79.1014 90.52C79.6614 90.174 82.3428 92.077 85.0604 94.7495C88.8427 98.47 90 100.331 90 102.691C90 109.687 98.7017 115.268 105.53 112.652C107.696 111.822 107.532 109.921 105.109 107.731C104.001 106.73 103.094 105.302 103.094 104.557C103.094 102.559 105.541 102.915 107.627 105.216C110.092 107.936 111.991 107.747 112.755 104.706C114.7 96.9693 108.454 89.0716 101.192 90.0855C100.422 90.1931 97.5897 88.1141 94.8963 85.4648C91.0193 81.6517 90 79.9639 90 77.3578C90 72.2794 85.5438 67.8991 79.8951 67.4253C77.4193 67.2171 74.8286 67.2996 74.1356 67.6084ZM80.9346 74.8493C80.9346 79.2447 78.8012 81.4344 75.0552 80.8862C72.9057 80.5704 71.8693 80.8349 71.8693 81.6959C71.8693 83.6693 76.0111 86.1055 79.3673 86.1055C83.758 86.1055 94.029 96.3186 94.029 100.686C94.029 103.834 96.4112 108.234 98.1155 108.234C98.6383 108.234 99.0654 106.665 99.0654 104.748C99.0654 100.914 101.082 99.1811 105.546 99.1811C106.967 99.1811 108.131 98.7547 108.131 98.2327C108.131 96.5308 103.725 94.152 100.572 94.152C96.1987 94.152 85.9709 83.8957 85.9709 79.5113C85.9709 76.4123 83.5757 72.0239 81.8845 72.0239C81.3617 72.0239 80.9346 73.2953 80.9346 74.8493ZM109.642 82.0822C108.799 83.444 109.936 85.0996 111.716 85.0996C112.514 85.0996 113.167 84.1944 113.167 83.088C113.167 81.0059 110.737 80.3119 109.642 82.0822ZM65.322 112.257C64.479 113.619 65.6161 115.274 67.396 115.274C68.1947 115.274 68.8475 114.369 68.8475 113.263C68.8475 111.181 66.4169 110.487 65.322 112.257Z" fill="black"/>
</svg>
