<svg width="180" height="180" viewBox="0 0 180 180" fill="none" xmlns="http://www.w3.org/2000/svg">
<path fill-rule="evenodd" clip-rule="evenodd" d="M47.6471 0C47.6471 0 47.6471 11.707 47.6471 23.5598V45.1116L23.8235 45.5273L0 45.9416V102.427V158.912L4.09311 159.382C8.03345 159.835 8.20135 160.224 8.63093 169.926L9.07563 180H90H170.924L171.369 169.926C171.799 160.224 171.967 159.835 175.907 159.382L180 158.912V102.427V45.9416L156.217 45.5273L132.433 45.1116L132.353 0H47.6471ZM53.6975 61.539V117.054L58.4592 118.414C61.079 119.162 64.5701 121.572 66.2173 123.769C68.7963 127.21 68.9718 128.455 67.4773 132.724C65.9919 136.967 66.1371 138.079 68.4862 140.417C71.1378 143.057 71.3708 143.004 75.3414 138.877C79.3361 134.726 79.3845 134.467 77.0461 129.799C69.2198 114.176 90.723 101.577 102.039 115.156C104.725 118.378 104.557 128.988 101.771 132.207C99.7276 134.565 99.9756 135.2 104.383 138.922C109.094 142.9 109.334 142.944 111.783 140.248C113.879 137.94 114.01 136.793 112.535 133.569C109.699 127.372 113.129 120.943 120.434 118.764L126.303 117.012V61.5194V6.02529H90H53.6975V61.539ZM68.8235 12.0504C68.8235 12.0504 68.8235 21.4495 68.8235 27.1131C68.8235 42.8688 68.8235 42.1757 68.8235 42.1757H111.176V12.0502C111.176 12.0502 98.3511 12.0504 88.5252 12.0504C73.6291 12.0504 68.8235 12.0504 68.8235 12.0504ZM74.874 27.1131V36.1508H90H105.126V27.1131V18.0755H90H74.874V27.1131ZM74.874 51.2135C74.874 53.2214 75.8829 54.2261 77.8992 54.2261C79.9155 54.2261 80.9244 53.2214 80.9244 51.2135C80.9244 49.2057 79.9155 48.201 77.8992 48.201C75.8829 48.201 74.874 49.2057 74.874 51.2135ZM86.9748 51.2135C86.9748 53.2214 87.9837 54.2261 90 54.2261C92.0163 54.2261 93.0252 53.2214 93.0252 51.2135C93.0252 49.2057 92.0163 48.201 90 48.201C87.9837 48.201 86.9748 49.2057 86.9748 51.2135ZM99.0756 51.2135C99.0756 53.2214 100.085 54.2261 102.101 54.2261C104.117 54.2261 105.126 53.2214 105.126 51.2135C105.126 49.2057 104.117 48.201 102.101 48.201C100.085 48.201 99.0756 49.2057 99.0756 51.2135ZM5.29412 102.427C5.29412 151.006 5.4363 153.64 8.05613 153.64C9.57478 153.64 12.2884 152.08 14.0884 150.173C16.9639 147.124 17.1454 146.143 15.5904 142.04C14.1111 138.138 14.2503 136.723 16.4435 133.39C17.8866 131.198 20.7953 128.751 22.9084 127.951C31.2217 124.803 40.2232 134.054 37.018 142.45C35.8684 145.461 35.9168 147.049 37.1919 148.237C38.4655 149.424 39.1462 149.341 39.662 147.936C40.0538 146.869 42.0217 144.047 44.0365 141.662C47.2235 137.891 47.4686 136.821 45.9182 133.434C44.5613 130.469 44.5553 128.624 45.8909 125.703C47.0647 123.14 47.6471 110.14 47.6471 86.5402V51.2135H26.4706H5.29412V102.427ZM132.353 86.5131C132.353 105.927 133.017 123.551 133.828 125.676C134.79 128.195 134.784 130.898 133.813 133.446C132.577 136.68 132.949 138.095 135.974 141.674C137.983 144.053 139.946 146.869 140.338 147.936C140.837 149.292 141.559 149.403 142.74 148.305C143.982 147.151 143.961 145.5 142.655 142.055C141.168 138.136 141.306 136.728 143.502 133.39C144.945 131.198 147.854 128.751 149.967 127.951C158.268 124.807 167.282 134.053 164.084 142.432C162.755 145.915 163.032 147.12 165.845 150.102C167.681 152.048 170.425 153.64 171.944 153.64C174.564 153.64 174.706 151.006 174.706 102.427V51.2135H153.529H132.353V86.5131ZM62.7731 63.2637C62.7731 65.2716 63.782 66.2763 65.7983 66.2763C67.8146 66.2763 68.8235 65.2716 68.8235 63.2637C68.8235 61.2559 67.8146 60.2512 65.7983 60.2512C63.782 60.2512 62.7731 61.2559 62.7731 63.2637ZM74.874 63.2637C74.874 65.2716 75.8829 66.2763 77.8992 66.2763C79.9155 66.2763 80.9244 65.2716 80.9244 63.2637C80.9244 61.2559 79.9155 60.2512 77.8992 60.2512C75.8829 60.2512 74.874 61.2559 74.874 63.2637ZM86.9748 63.2637C86.9748 65.2716 87.9837 66.2763 90 66.2763C92.0163 66.2763 93.0252 65.2716 93.0252 63.2637C93.0252 61.2559 92.0163 60.2512 90 60.2512C87.9837 60.2512 86.9748 61.2559 86.9748 63.2637ZM99.0756 63.2637C99.0756 65.2716 100.085 66.2763 102.101 66.2763C104.117 66.2763 105.126 65.2716 105.126 63.2637C105.126 61.2559 104.117 60.2512 102.101 60.2512C100.085 60.2512 99.0756 61.2559 99.0756 63.2637ZM111.176 63.2637C111.176 65.2716 112.185 66.2763 114.202 66.2763C116.218 66.2763 117.227 65.2716 117.227 63.2637C117.227 61.2559 116.218 60.2512 114.202 60.2512C112.185 60.2512 111.176 61.2559 111.176 63.2637ZM14.3697 93.3892C14.3697 116.485 14.4953 117.49 17.395 117.49C20.2946 117.49 20.4202 116.485 20.4202 93.3892C20.4202 70.2935 20.2946 69.2888 17.395 69.2888C14.4953 69.2888 14.3697 70.2935 14.3697 93.3892ZM32.521 93.3892C32.521 116.485 32.6466 117.49 35.5462 117.49C38.4459 117.49 38.5714 116.485 38.5714 93.3892C38.5714 70.2935 38.4459 69.2888 35.5462 69.2888C32.6466 69.2888 32.521 70.2935 32.521 93.3892ZM141.429 93.3892C141.429 116.485 141.554 117.49 144.454 117.49C147.353 117.49 147.479 116.485 147.479 93.3892C147.479 70.2935 147.353 69.2888 144.454 69.2888C141.554 69.2888 141.429 70.2935 141.429 93.3892ZM159.58 93.3892C159.58 116.485 159.705 117.49 162.605 117.49C165.505 117.49 165.63 116.485 165.63 93.3892C165.63 70.2935 165.505 69.2888 162.605 69.2888C159.705 69.2888 159.58 70.2935 159.58 93.3892ZM62.7731 75.3139C62.7731 77.3218 63.782 78.3265 65.7983 78.3265C67.8146 78.3265 68.8235 77.3218 68.8235 75.3139C68.8235 73.3061 67.8146 72.3014 65.7983 72.3014C63.782 72.3014 62.7731 73.3061 62.7731 75.3139ZM74.874 75.3139C74.874 77.3218 75.8829 78.3265 77.8992 78.3265C79.9155 78.3265 80.9244 77.3218 80.9244 75.3139C80.9244 73.3061 79.9155 72.3014 77.8992 72.3014C75.8829 72.3014 74.874 73.3061 74.874 75.3139ZM86.9748 75.3139C86.9748 77.3218 87.9837 78.3265 90 78.3265C92.0163 78.3265 93.0252 77.3218 93.0252 75.3139C93.0252 73.3061 92.0163 72.3014 90 72.3014C87.9837 72.3014 86.9748 73.3061 86.9748 75.3139ZM99.0756 75.3139C99.0756 77.3218 100.085 78.3265 102.101 78.3265C104.117 78.3265 105.126 77.3218 105.126 75.3139C105.126 73.3061 104.117 72.3014 102.101 72.3014C100.085 72.3014 99.0756 73.3061 99.0756 75.3139ZM111.176 75.3139C111.176 77.3218 112.185 78.3265 114.202 78.3265C116.218 78.3265 117.227 77.3218 117.227 75.3139C117.227 73.3061 116.218 72.3014 114.202 72.3014C112.185 72.3014 111.176 73.3061 111.176 75.3139ZM62.7731 87.3641C62.7731 89.372 63.782 90.3767 65.7983 90.3767C67.8146 90.3767 68.8235 89.372 68.8235 87.3641C68.8235 85.3563 67.8146 84.3516 65.7983 84.3516C63.782 84.3516 62.7731 85.3563 62.7731 87.3641ZM74.874 87.3641C74.874 89.372 75.8829 90.3767 77.8992 90.3767C79.9155 90.3767 80.9244 89.372 80.9244 87.3641C80.9244 85.3563 79.9155 84.3516 77.8992 84.3516C75.8829 84.3516 74.874 85.3563 74.874 87.3641ZM86.9748 87.3641C86.9748 89.372 87.9837 90.3767 90 90.3767C92.0163 90.3767 93.0252 89.372 93.0252 87.3641C93.0252 85.3563 92.0163 84.3516 90 84.3516C87.9837 84.3516 86.9748 85.3563 86.9748 87.3641ZM99.0756 87.3641C99.0756 89.372 100.085 90.3767 102.101 90.3767C104.117 90.3767 105.126 89.372 105.126 87.3641C105.126 85.3563 104.117 84.3516 102.101 84.3516C100.085 84.3516 99.0756 85.3563 99.0756 87.3641ZM111.176 87.3641C111.176 89.372 112.185 90.3767 114.202 90.3767C116.218 90.3767 117.227 89.372 117.227 87.3641C117.227 85.3563 116.218 84.3516 114.202 84.3516C112.185 84.3516 111.176 85.3563 111.176 87.3641ZM62.7731 99.4143C62.7731 101.422 63.782 102.427 65.7983 102.427C67.8146 102.427 68.8235 101.422 68.8235 99.4143C68.8235 97.4064 67.8146 96.4018 65.7983 96.4018C63.782 96.4018 62.7731 97.4064 62.7731 99.4143ZM74.874 99.4143C74.874 101.422 75.8829 102.427 77.8992 102.427C79.9155 102.427 80.9244 101.422 80.9244 99.4143C80.9244 97.4064 79.9155 96.4018 77.8992 96.4018C75.8829 96.4018 74.874 97.4064 74.874 99.4143ZM86.9748 99.4143C86.9748 101.422 87.9837 102.427 90 102.427C92.0163 102.427 93.0252 101.422 93.0252 99.4143C93.0252 97.4064 92.0163 96.4018 90 96.4018C87.9837 96.4018 86.9748 97.4064 86.9748 99.4143ZM99.0756 99.4143C99.0756 101.422 100.085 102.427 102.101 102.427C104.117 102.427 105.126 101.422 105.126 99.4143C105.126 97.4064 104.117 96.4018 102.101 96.4018C100.085 96.4018 99.0756 97.4064 99.0756 99.4143ZM111.176 99.4143C111.176 101.422 112.185 102.427 114.202 102.427C116.218 102.427 117.227 101.422 117.227 99.4143C117.227 97.4064 116.218 96.4018 114.202 96.4018C112.185 96.4018 111.176 97.4064 111.176 99.4143ZM83.4277 117.232C78.0005 123.203 82.1723 132.552 90.2632 132.552C98.0092 132.552 102.049 122.142 96.3091 116.97C92.6561 113.677 86.5452 113.802 83.4277 117.232ZM52.2454 125.702C48.2264 130.523 54.1286 137.93 59.3697 134.643C64.6064 131.358 62.7413 123.515 56.7227 123.515C55.263 123.515 53.2482 124.498 52.2454 125.702ZM118.8 125.702C114.781 130.523 120.683 137.93 125.924 134.643C131.161 131.358 129.296 123.515 123.277 123.515C121.818 123.515 119.803 124.498 118.8 125.702ZM21.9933 134.739C17.9743 139.561 23.8765 146.967 29.1176 143.681C34.3543 140.396 32.4892 132.552 26.4706 132.552C25.0109 132.552 22.9961 133.536 21.9933 134.739ZM149.052 134.739C145.033 139.561 150.935 146.967 156.176 143.681C161.413 140.396 159.548 132.552 153.529 132.552C152.07 132.552 150.055 133.536 149.052 134.739ZM79.2953 142.98C75.0585 147.199 74.874 147.953 74.874 161.056V174.728H90H105.126V161.056C105.126 147.953 104.942 147.199 100.705 142.98C97.2363 139.528 94.9281 138.577 90 138.577C85.0719 138.577 82.7637 139.528 79.2953 142.98ZM48.3353 145.288C44.9713 148.636 44.6218 150.198 44.6218 161.857V174.728H56.7227H68.8235V161.857C68.8235 150.198 68.4741 148.636 65.1101 145.288C62.7701 142.956 59.6692 141.59 56.7227 141.59C53.7761 141.59 50.6753 142.956 48.3353 145.288ZM114.89 145.288C111.526 148.636 111.176 150.198 111.176 161.857V174.728H123.277H135.378V161.857C135.378 150.198 135.029 148.636 131.665 145.288C129.325 142.956 126.224 141.59 123.277 141.59C120.331 141.59 117.23 142.956 114.89 145.288ZM18.0832 154.326C15.0338 157.361 14.3697 159.515 14.3697 166.376V174.728H26.4706H38.5714V166.376C38.5714 156.324 34.194 150.628 26.4706 150.628C23.524 150.628 20.4232 151.994 18.0832 154.326ZM145.142 154.326C142.093 157.361 141.429 159.515 141.429 166.376V174.728H153.529H165.63V166.376C165.63 156.324 161.253 150.628 153.529 150.628C150.583 150.628 147.482 151.994 145.142 154.326Z" fill="black"/>
</svg>
