<svg width="180" height="180" viewBox="0 0 180 180" fill="none" xmlns="http://www.w3.org/2000/svg">
<path fill-rule="evenodd" clip-rule="evenodd" d="M71.9999 1.23827C37.7169 8.94096 12.5609 32.738 2.75989 66.7353C0.851888 73.3533 0 76.9536 0 90.1235C0 103.293 0.851888 106.894 2.75989 113.512C11.9589 145.421 34.9719 168.593 66.4999 177.691C73.3049 179.655 76.8149 180 89.9999 180C103.185 180 106.695 179.655 113.5 177.691C145.028 168.593 168.041 145.421 177.24 113.512C179.148 106.894 180 103.293 180 90.1235C180 76.8823 179.151 73.3574 177.196 66.5234C168.198 35.0769 145.097 11.8001 113.826 2.67235C104.181 -0.143598 81.5969 -0.917882 71.9999 1.23827ZM78.4999 6.81393C50.7609 11.1333 27.6879 27.8432 15.4669 52.4637C8.85889 65.7752 6.74589 74.8989 6.74589 90.1235C6.74589 105.348 8.85889 114.472 15.4669 127.783C23.7039 144.378 35.9759 156.702 52.4999 164.974C65.7549 171.61 74.8399 173.732 89.9999 173.732C105.16 173.732 114.245 171.61 127.5 164.974C149.035 154.193 164.867 134.507 171.137 110.711C174.104 99.4491 174.104 80.7979 171.137 69.5361C161.629 33.453 130.65 8.18977 93.6379 6.33691C88.6119 6.08584 81.7999 6.29975 78.4999 6.81393ZM82.3999 39.3079C78.4039 43.3209 77.9229 47.6643 80.9259 52.6113C86.5779 61.9188 100.984 57.2359 100.996 46.0866C101.002 40.9378 95.5609 35.8934 89.9999 35.8934C86.5569 35.8934 85.1869 36.509 82.3999 39.3079ZM85.6349 41.9922C82.5379 44.4386 82.2439 47.7888 84.8439 51.0135C88.6969 55.7918 96.9999 52.6404 96.9999 46.3999C96.9999 43.8401 92.7609 39.9104 89.9999 39.9104C89.0479 39.9104 87.0839 40.8474 85.6349 41.9922ZM64.9999 48.3964C64.9999 49.1978 65.7869 50.3276 66.7499 50.9071C68.3879 51.8943 68.3719 52.0349 66.4999 53.1054C62.0509 55.6492 53.6879 65.4609 50.9369 71.3649C47.9749 77.7219 45.7589 89.1102 47.0689 91.2403C48.4869 93.543 50.9999 91.3116 50.9999 87.7505C50.9999 78.3978 58.1319 64.6173 65.8169 59.1219C68.4159 57.2631 68.7569 57.2138 68.6369 58.7142C68.5619 59.6532 69.1909 60.5651 70.0349 60.7428C71.7369 61.0993 76.4529 52.5059 75.4499 50.877C74.7449 49.7301 68.3149 46.9402 66.3779 46.9402C65.6199 46.9402 64.9999 47.596 64.9999 48.3964ZM104.667 50.6229C103.355 51.9395 104.065 52.8132 108.625 55.4966C118.473 61.2932 124.298 68.5249 127.29 78.6669L128.798 83.7806L126.399 83.3197C124.778 83.0093 124 83.3217 124 84.2857C124 85.9418 130.07 92.1321 131.694 92.1321C132.98 92.1321 139 85.4838 139 84.0628C139 82.7422 135.657 82.8356 134.304 84.1944C133.51 84.9917 133.023 84.1924 132.534 81.287C130.754 70.7041 120.705 56.9337 111.214 52.071C106.792 49.8054 105.717 49.5674 104.667 50.6229ZM79.4999 59.9193C74.8249 61.8907 73.4999 64.791 73.4999 73.0481C73.4999 84.7296 74.0099 85.1022 89.9999 85.1022C106.01 85.1022 106.5 84.7417 106.5 72.9647C106.5 65.7009 106.28 64.8402 103.777 62.3276C101.681 60.2236 100.243 59.6542 97.5269 59.8541C89.9979 60.4094 86.4049 60.3793 83.9999 59.7396C82.6249 59.374 80.5999 59.4554 79.4999 59.9193ZM79.9029 64.8944C78.1789 66.2954 77.9399 67.5136 78.1989 73.5542L78.4999 80.583H89.9999H101.5L101.801 73.5542C102.06 67.5136 101.821 66.2954 100.097 64.8944C98.4319 63.5407 97.4039 63.4473 94.0459 64.3471C91.1489 65.1234 88.8509 65.1234 85.9539 64.3471C82.5959 63.4473 81.5679 63.5407 79.9029 64.8944ZM49.9999 95.7996C45.9139 97.1514 43.9459 98.7542 42.4299 101.963C39.0369 109.144 44.4829 117.239 52.7079 117.239C55.8059 117.239 57.2639 116.558 59.8039 113.927C65.2939 108.238 63.5589 99.5485 56.3279 96.5147C52.8769 95.0665 52.3849 95.0103 49.9999 95.7996ZM123.452 96.5448C119.416 98.3263 117 102.228 117 106.964C117 115.278 127.12 120.15 134.071 115.18C144.449 107.758 135.124 91.3929 123.452 96.5448ZM49.2349 100.212C47.9899 100.709 46.5389 102.258 46.0099 103.654C43.3749 110.616 51.9729 116.401 56.9609 111.023C61.9149 105.684 56.0589 97.4878 49.2349 100.212ZM125.315 100.182C120.89 101.955 119.733 107.46 123.039 111.023C127.108 115.41 134.333 112.389 134.333 106.3C134.333 101.327 129.926 98.3364 125.315 100.182ZM43.3269 119.002C42.1319 119.203 39.9939 120.532 38.5769 121.955C36.2219 124.32 35.9999 125.26 35.9999 132.87C35.9999 144.433 35.8849 144.354 52.5479 144.354C65.7329 144.354 65.9809 144.313 67.5869 141.851C68.8359 139.937 69.1299 137.578 68.8399 131.812C68.5179 125.401 68.0889 123.901 65.9659 121.77C63.3029 119.094 61.1919 118.752 53.8959 119.812C51.3639 120.179 48.4389 120.066 47.3959 119.558C46.3529 119.052 44.5219 118.802 43.3269 119.002ZM118.374 119.01C117.205 119.199 115.187 120.488 113.891 121.875C110.765 125.215 109.828 137.888 112.413 141.851C114.019 144.313 114.267 144.354 127.452 144.354C144.105 144.354 144 144.426 144 132.921C144 125.167 143.823 124.474 141.201 121.952C138.311 119.171 136.164 118.774 129.775 119.843C127.726 120.185 124.801 120.061 123.275 119.565C121.749 119.07 119.543 118.82 118.374 119.01ZM40.9209 125.42C40.4149 126.371 39.9999 130.116 39.9999 133.743V140.337H51.9999H63.9999V132.864C63.9999 128.154 63.5579 125.117 62.8059 124.65C62.1489 124.242 57.1629 123.86 51.7269 123.8C43.3299 123.708 41.7039 123.952 40.9209 125.42ZM116.956 124.714C116.43 125.243 116 128.973 116 133.006V140.337H128H140V132.864C140 128.234 139.554 125.114 138.828 124.664C137.061 123.567 118.055 123.611 116.956 124.714ZM75.7499 125.466C71.4429 126.626 71.1899 127.776 74.0199 133.347C76.3429 137.919 78.9999 138.66 78.9999 134.734C78.9999 132.4 79.2859 132.206 81.8879 132.78C90.4759 134.675 108 131.987 108 128.776C108 126.491 106.594 126.301 100.92 127.818C97.9389 128.614 92.4679 129.272 88.7619 129.278C82.4029 129.289 82.0369 129.165 82.2619 127.071C82.5439 124.442 80.9789 124.056 75.7499 125.466Z" fill="black"/>
</svg>
